<?xml version="1.0" standalone="no"?>
<!DOCTYPE svg PUBLIC "-//W3C//DTD SVG 20010904//EN"
 "http://www.w3.org/TR/2001/REC-SVG-20010904/DTD/svg10.dtd">
<svg version="1.0" xmlns="http://www.w3.org/2000/svg"
 width="170.000000pt" height="91.000000pt" viewBox="0 0 170.000000 91.000000"
 preserveAspectRatio="xMidYMid meet">

<g transform="translate(0.000000,91.000000) scale(0.100000,-0.100000)"
fill="#000000" stroke="none">
<path d="M1551 869 c0 -9 7 -34 16 -55 25 -59 26 -244 2 -301 -10 -24 -19 -47
-19 -51 0 -4 -9 -19 -19 -33 -31 -42 -135 -87 -268 -116 -13 -3 -23 -9 -23
-13 0 -8 176 40 225 61 55 24 85 50 107 92 12 23 23 47 25 52 28 106 32 177
12 246 -7 24 -13 46 -14 49 -6 26 -18 50 -25 50 -5 0 -11 8 -13 18 -4 14 -5
14 -6 1z"/>
<path d="M680 715 c-12 -15 -9 -79 6 -118 5 -14 0 -17 -31 -17 -30 0 -44 7
-71 36 -19 19 -34 42 -34 50 0 8 -4 14 -10 14 -29 0 15 -94 50 -105 32 -10 42
-30 29 -59 -11 -24 -17 -26 -71 -26 -32 0 -58 -4 -58 -9 0 -4 11 -6 25 -3 35
6 70 -5 99 -31 l24 -23 -24 -21 c-13 -12 -24 -33 -24 -47 0 -54 -46 -66 -113
-27 -30 17 -49 70 -48 131 1 70 -19 129 -54 155 -28 22 -42 25 -119 25 -54 0
-106 -6 -137 -16 -70 -23 -55 -27 27 -8 72 16 133 13 190 -11 26 -11 33 -21
42 -61 6 -27 13 -76 15 -109 3 -33 9 -71 15 -85 16 -40 57 -71 101 -77 35 -5
46 -2 66 17 14 13 25 33 25 45 0 34 24 58 59 58 42 0 46 -6 31 -53 -22 -67 13
-116 66 -92 29 14 32 57 9 102 -15 29 -15 30 8 30 40 0 85 20 101 45 9 14 16
45 16 71 0 63 -32 94 -96 94 -24 0 -44 2 -44 4 0 3 5 17 11 32 14 40 4 71 -31
89 -36 18 -35 18 -50 0z m61 -32 c3 -49 -4 -99 -14 -105 -14 -9 -29 0 -21 13
3 5 1 15 -4 22 -6 7 -13 29 -17 50 -7 36 -7 37 24 37 22 0 31 -5 32 -17z m88
-124 c30 -11 31 -13 31 -67 0 -67 -7 -81 -40 -84 -27 -3 -25 -9 -29 105 -2 69
-21 39 -21 -34 0 -61 -2 -70 -16 -65 -9 3 -20 6 -25 6 -5 0 -9 25 -9 55 0 34
-4 55 -11 55 -7 0 -9 -11 -6 -29 13 -62 -26 -97 -59 -53 -17 22 -17 41 -1 75
10 22 19 27 49 27 20 0 40 5 43 10 8 13 54 13 94 -1z m-84 -209 c8 -16 15 -43
15 -60 0 -25 -4 -30 -25 -30 -24 0 -25 3 -25 53 0 47 5 67 16 67 2 0 10 -13
19 -30z"/>
<path d="M1529 653 c-31 -35 -71 -63 -146 -104 -121 -67 -98 -65 -235 -19
-138 46 -198 61 -198 51 0 -8 115 -48 218 -76 34 -10 62 -21 62 -25 0 -11 -27
-20 -56 -20 -14 0 -34 -5 -45 -11 -11 -5 -38 -12 -59 -15 -21 -3 -52 -11 -67
-19 l-28 -15 30 0 c39 0 184 27 210 39 57 27 115 51 124 51 38 0 167 101 220
173 21 28 -2 20 -30 -10z"/>
<path d="M790 196 c0 -21 16 -45 59 -89 33 -34 62 -59 65 -57 2 3 -13 31 -34
62 -21 32 -35 59 -32 61 16 8 119 12 297 11 152 -1 202 -5 250 -19 33 -10 67
-19 76 -20 25 -2 163 -47 174 -57 12 -11 25 -10 25 2 0 6 -5 10 -11 10 -7 0
-30 9 -53 19 -39 19 -71 30 -81 31 -3 0 -22 7 -43 16 -20 8 -44 17 -52 20 -8
2 -33 9 -55 15 -22 7 -123 14 -230 16 -149 3 -204 0 -253 -13 -60 -14 -65 -14
-83 2 -18 16 -19 16 -19 -10z"/>
<path d="M520 199 c-69 -5 -165 -10 -215 -12 -135 -6 -248 -18 -265 -29 -10
-6 0 -7 30 -4 25 3 164 6 310 7 l265 2 69 -72 c38 -39 71 -69 73 -67 6 6 -19
56 -29 56 -4 0 -8 5 -8 11 0 22 -85 122 -99 117 -3 -1 -62 -5 -131 -9z"/>
</g>
</svg>
